<svg xmlns="http://www.w3.org/2000/svg" viewBox="0 0 1280 720" role="img" aria-labelledby="title desc">
  <title id="title">Abstract gold light in a dark cinematic landscape</title>
  <desc id="desc">Original DAITIGN Stream design system artwork made from soft gradients and geometric forms.</desc>
  <defs>
    <linearGradient id="bg" x1="0" y1="0" x2="1" y2="1">
      <stop offset="0" stop-color="#121820"/>
      <stop offset="0.52" stop-color="#090b0e"/>
      <stop offset="1" stop-color="#171109"/>
    </linearGradient>
    <radialGradient id="halo" cx="72%" cy="29%" r="55%">
      <stop offset="0" stop-color="#e7c27b" stop-opacity=".7"/>
      <stop offset=".27" stop-color="#b88131" stop-opacity=".18"/>
      <stop offset="1" stop-color="#090b0e" stop-opacity="0"/>
    </radialGradient>
    <linearGradient id="ridge" x1=".15" y1=".2" x2=".8" y2="1">
      <stop stop-color="#323943"/>
      <stop offset="1" stop-color="#0b0d10"/>
    </linearGradient>
    <filter id="blur"><feGaussianBlur stdDeviation="18"/></filter>
  </defs>
  <rect width="1280" height="720" fill="url(#bg)"/>
  <rect width="1280" height="720" fill="url(#halo)"/>
  <circle cx="917" cy="207" r="69" fill="#e2bd76" opacity=".92" filter="url(#blur)"/>
  <circle cx="917" cy="207" r="48" fill="#f2d99f"/>
  <path d="M0 535 160 432l111 49 186-165 198 173 124-86 177 144 126-75 198 108v140H0Z" fill="url(#ridge)"/>
  <path d="M0 610 190 525l155 46 163-85 196 104 190-84 156 88 240-76v202H0Z" fill="#090b0e" opacity=".83"/>
  <path d="m782 482 141-198 100 248" fill="none" stroke="#dfb76b" stroke-opacity=".26" stroke-width="2"/>
  <path d="M190 82h142" stroke="#e2bd76" stroke-opacity=".46"/>
  <text x="190" y="122" fill="#f8f8f6" font-family="Arial, sans-serif" font-size="18" font-weight="700" letter-spacing="5">DAITIGN STUDY 01</text>
  <text x="190" y="150" fill="#929ba7" font-family="Arial, sans-serif" font-size="13" letter-spacing="2">ORIGINAL SYSTEM ARTWORK</text>
</svg>
